<svg xmlns="http://www.w3.org/2000/svg" width="83" height="17" viewBox="0 0 83 17" fill="none" class=""><path d="M20.2851 15.6474V1.31796H26.5129C28.0482 1.31796 29.5188 1.60963 30.6113 2.19225C31.7101 2.77488 32.6448 3.60649 33.2077 4.68638C33.7771 5.76626 34.0621 7.03822 34.0621 8.50226C34.0621 9.96629 33.7778 11.2247 33.2077 12.2982C32.6455 13.3717 31.8146 14.199 30.7157 14.7824C29.6233 15.3586 28.0489 15.6467 26.5129 15.6467H20.2851V15.6474ZM26.5783 13.2408C27.5308 13.2408 28.4818 13.0537 29.1542 12.6795C29.8322 12.2989 30.4449 11.7519 30.8074 11.0384C31.1699 10.3241 31.3512 9.47899 31.3512 8.50155C31.3512 7.5241 31.1699 6.66119 30.8074 5.94767C30.4449 5.23414 29.833 4.68922 29.1542 4.31503C28.4761 3.93444 27.5222 3.7445 26.5698 3.7445H22.9455V13.2408H26.579H26.5783Z" fill="#9CA3AF"></path><path fill-rule="evenodd" clip-rule="evenodd" d="M42.9711 15.94C47.0744 15.94 50.4009 12.6107 50.4009 8.50389C50.4009 4.39705 47.0744 1.06776 42.9711 1.06776C38.8678 1.06776 35.5414 4.39705 35.5414 8.50389C35.5414 12.6107 38.8678 15.94 42.9711 15.94ZM42.9711 13.2624C45.5043 13.2624 47.5578 11.1318 47.5578 8.50389C47.5578 5.87603 45.5043 3.74613 42.9711 3.74613C40.4379 3.74613 38.3845 5.87674 38.3845 8.50389C38.3845 11.131 40.4379 13.2624 42.9711 13.2624Z" fill="#9CA3AF"></path><path d="M54.7758 1.31796H52.1154V15.6474H54.7758V1.31796Z" fill="#9CA3AF"></path><path d="M60.6355 15.6481L66.2187 1.31796H63.5582L59.3973 12.1346L55.2364 1.31796H52.576L58.1592 15.6481H60.6355Z" fill="#9CA3AF"></path><path d="M66.677 1.31796H64.0166V15.6474H66.677V1.31796Z" fill="#9CA3AF"></path><path d="M71.0113 15.6481H68.0666L74.0534 1.31796H76.856L71.0113 15.6481Z" fill="#9CA3AF"></path><path d="M80.0553 15.6481H83L77.0124 1.31796H74.2098L80.0553 15.6481Z" fill="#9CA3AF"></path><path d="M80.0951 10.8334H70.7513V13.2507H80.0951V10.8334Z" fill="#9CA3AF"></path><path d="M8.49505 10.4328C9.56144 10.4328 10.4258 9.56774 10.4258 8.50044C10.4258 7.43313 9.56144 6.56807 8.49505 6.56807C7.42866 6.56807 6.56434 7.43313 6.56434 8.50044C6.56434 9.56774 7.42866 10.4328 8.49505 10.4328Z" fill="#9CA3AF"></path><path d="M8.49473 5.77441L10.4181 3.84938V0.219602C9.79921 0.0760932 9.15431 0 8.49207 0C7.82982 0 7.18892 0.0754257 6.57136 0.218267V3.84938L8.49473 5.77441Z" fill="#9CA3AF"></path><path d="M8.49473 11.2703L6.57136 13.1513H6.57203V16.7824C7.18826 16.9246 7.82982 17 8.4894 17H8.49273C9.15498 17 9.79988 16.9239 10.4181 16.7804V13.1513L8.49473 11.2703Z" fill="#9CA3AF"></path><path d="M16.766 6.57701H13.1427L11.2007 8.50203L13.1427 10.4271H16.7667C16.9094 9.80897 16.9855 9.16485 16.9855 8.50337C16.9855 7.84189 16.9094 7.19644 16.7667 6.57768L16.766 6.57701Z" fill="#9CA3AF"></path><path d="M5.72943 8.50204L3.84608 6.57701L0.214745 6.57768C0.0893661 7.11968 0.0160059 7.68103 0 8.25707V8.747C0.0160059 9.32304 0.0893661 9.88506 0.214745 10.4271H3.84541L5.72877 8.50204H5.72943Z" fill="#9CA3AF"></path><path d="M13.1478 6.56055L15.7007 4.00542C15.0131 2.90407 14.0814 1.97159 12.9804 1.28475L10.4268 3.84055C11.6539 4.35117 12.6363 5.33304 13.1478 6.56055Z" fill="#9CA3AF"></path><path d="M3.83342 10.437L1.27982 12.9928C1.60594 13.5168 1.98741 14.0021 2.41624 14.4413L2.55629 14.5815C2.99378 15.0093 3.47663 15.3898 3.99815 15.7155L6.55042 13.1604C5.32397 12.6477 4.34294 11.6652 3.83276 10.4364L3.83342 10.437Z" fill="#9CA3AF"></path><path d="M13.1489 10.4389C12.6387 11.6671 11.6577 12.6503 10.4306 13.1623L12.9835 15.7174C13.4597 15.4197 13.9045 15.0759 14.3114 14.6928L14.6762 14.3277C15.0603 13.9192 15.4044 13.4726 15.7019 12.9947L13.1483 10.4389H13.1489Z" fill="#9CA3AF"></path><path d="M6.55567 3.84055L4.00207 1.28475C2.901 1.97226 1.96932 2.90407 1.28173 4.00542L3.83467 6.56055C4.34619 5.33304 5.32855 4.35117 6.55567 3.84055Z" fill="#9CA3AF"></path></svg>
